Coordinates
version=1
nRows=8
nColumns=46
inDegrees=yes

Units are S.I. units (second, meters, Newtons, ...)
Angles are in degrees.

endheader
time	pelvis_tilt	pelvis_list	pelvis_rotation	pelvis_tx	pelvis_ty	pelvis_tz	bb_angle	bb_tx	bb_ty	bb_tz	hip_flexion_r	hip_adduction_r	hip_rotation_r	knee_angle_r	knee_angle_r_beta	ankle_angle_r	subtalar_angle_r	mtp_angle_r	crank_angle_r	hip_flexion_l	hip_adduction_l	hip_rotation_l	knee_angle_l	knee_angle_l_beta	ankle_angle_l	subtalar_angle_l	mtp_angle_l	crank_angle_l	lumbar_extension	lumbar_bending	lumbar_rotation	arm_flex_r	arm_add_r	arm_rot_r	elbow_flex_r	pro_sup_r	wrist_flex_r	wrist_dev_r	arm_flex_l	arm_add_l	arm_rot_l	elbow_flex_l	pro_sup_l	wrist_flex_l	wrist_dev_l
      2.50000000	    -26.27677045	      0.09647780	      0.75579765	      0.17207648	      1.03952454	     -0.21367325	      0.00000000	      0.50000000	      0.00000000	      0.25000000	     67.55066149	     -1.17334958	      6.64799896	     88.45547386	      1.54383926	    -16.70324725	    -13.61493379	      0.00000000	      0.00000000	     69.83364757	     -1.08899175	      4.07744734	     58.43454807	      1.01987526	     22.32693232	    -16.83863910	      0.00000000	      0.00000000	    -48.91154652	     -4.83157856	     -5.63764226	     67.55703629	     -9.96865062	     17.08639692	     71.65465636	     46.73905751	      0.00000000	      0.00000000	     68.97816725	    -18.28288586	     21.41483458	     80.25292800	     47.41967396	      0.00000000	      0.00000000
      2.50500000	    -26.36764111	     -0.15733518	      0.59448493	      0.17325080	      1.03927045	     -0.21356791	      0.00000000	      0.50000000	      0.00000000	      0.25000000	     68.12251627	     -0.94398043	      6.48591790	     89.47499966	      1.56163334	    -16.31747508	    -13.27998357	      0.00000000	      0.00000000	     69.29475083	     -1.43297621	      4.14631574	     57.44383028	      1.00258397	     21.61159713	    -16.54392643	      0.00000000	      0.00000000	    -48.66316966	     -4.70070543	     -5.38539643	     67.27210987	     -9.89187764	     16.91068597	     71.81689119	     46.69801141	      0.00000000	      0.00000000	     68.48216155	    -18.07915895	     20.98022395	     80.37393406	     47.36023056	      0.00000000	      0.00000000
      2.51000000	    -26.38716712	     -0.41652027	      0.46951085	      0.17451715	      1.03925205	     -0.21352704	      0.00000000	      0.50000000	      0.00000000	      0.25000000	     68.59981683	     -0.72973413	      6.30074276	     90.44025586	      1.57848024	    -16.26857550	    -12.78956773	      0.00000000	      0.00000000	     68.66018637	     -1.76563035	      4.22141657	     56.42977726	      0.98488541	     21.05958236	    -16.09878522	      0.00000000	      0.00000000	    -48.47826951	     -4.54955482	     -5.15827863	     66.92127944	     -9.86738931	     16.80316043	     71.89670947	     46.65348337	      0.00000000	      0.00000000	     67.93137778	    -17.89787808	     20.59536540	     80.42600182	     47.30024198	      0.00000000	      0.00000000
      2.51500000	    -26.19291024	     -0.51938658	      0.29194302	      0.17587795	      1.03973732	     -0.21316319	      0.00000000	      0.50000000	      0.00000000	      0.25000000	     68.88531730	     -0.53260123	      6.23246630	     91.41314547	      1.59546037	    -16.31004490	    -13.03216888	      0.00000000	      0.00000000	     67.72241124	     -2.06523019	      4.14725499	     55.33344713	      0.96575084	     20.12394177	    -16.10075024	      0.00000000	      0.00000000	    -48.55221156	     -4.65249739	     -5.13162457	     67.00667808	    -10.20495427	     17.71681059	     71.29549297	     46.69400150	      0.00000000	      0.00000000	     67.73959075	    -18.13914936	     20.85424103	     80.36912447	     47.36725251	      0.00000000	      0.00000000
      2.52000000	    -26.21956010	     -0.86448115	      0.16700041	      0.17718271	      1.03959876	     -0.21288397	      0.00000000	      0.50000000	      0.00000000	      0.25000000	     69.39920354	     -0.24945941	      5.98853217	     92.43997275	      1.61338188	    -15.86943498	    -12.59825988	      0.00000000	      0.00000000	     67.14072538	     -2.49131045	      4.24131565	     54.40402098	      0.94952929	     19.45972849	    -15.64814253	      0.00000000	      0.00000000	    -48.30846942	     -4.39688867	     -4.77085879	     66.65652918	    -10.06382284	     17.55054972	     71.46363742	     46.65956440	      0.00000000	      0.00000000	     67.24055902	    -17.99160297	     20.44654576	     80.35258176	     47.29447961	      0.00000000	      0.00000000
      2.52500000	    -26.10781025	     -1.14411598	      0.02677956	      0.17857062	      1.03987708	     -0.21266417	      0.00000000	      0.50000000	      0.00000000	      0.25000000	     69.76119584	     -0.00106234	      5.77820952	     93.37843365	      1.62976112	    -15.74884535	    -12.62387778	      0.00000000	      0.00000000	     66.38299799	     -2.90152186	      4.22343253	     53.46547108	      0.93314851	     18.77138670	    -15.18655152	      0.00000000	      0.00000000	    -48.26922618	     -4.27467470	     -4.56172240	     66.50460777	    -10.10532143	     17.78652674	     71.26597478	     46.67044391	      0.00000000	      0.00000000	     67.01390611	    -18.07175384	     20.53274242	     80.26140370	     47.30688016	      0.00000000	      0.00000000
      2.53000000	    -26.03731284	     -1.37551953	     -0.10312167	      0.17983874	      1.04008271	     -0.21246411	      0.00000000	      0.50000000	      0.00000000	      0.25000000	     70.19924745	      0.20898574	      5.63348946	     94.34987730	      1.64671601	    -15.40455424	    -12.29290142	      0.00000000	      0.00000000	     65.67199413	     -3.28614686	      4.14568086	     52.51521811	      0.91656346	     18.07438858	    -14.76686086	      0.00000000	      0.00000000	    -48.16948739	     -4.16380657	     -4.34393063	     66.27112349	    -10.07408169	     17.83186304	     71.25913906	     46.63937944	      0.00000000	      0.00000000	     66.60320981	    -17.92055110	     20.27261263	     80.22851148	     47.25046000	      0.00000000	      0.00000000
      2.53500000	    -25.64087263	     -1.56574415	     -0.15143151	      0.18111748	      1.04095674	     -0.21236406	      0.00000000	      0.50000000	      0.00000000	      0.25000000	     70.28679834	      0.31205736	      5.48283902	     95.30365706	      1.66336260	    -15.11725813	    -12.08145144	      0.00000000	      0.00000000	     64.56590643	     -3.54593807	      4.10720166	     51.49185786	      0.89870246	     17.03784216	    -14.45286701	      0.00000000	      0.00000000	    -48.37301161	     -4.04845157	     -4.34081458	     66.79239382	    -10.48331648	     19.46584248	     69.89969209	     46.76358843	      0.00000000	      0.00000000	     66.63798488	    -18.07246988	     20.55017701	     79.52160923	     47.33577593	      0.00000000	      0.00000000
